<svg width="177" height="41" viewBox="0 0 177 41" fill="none" xmlns="http://www.w3.org/2000/svg">
<path d="M8.14666 16.9467L12.5953 21.4704L15.8977 18.1122L11.4491 13.5885L13.4792 11.5241L17.9278 16.0476L21.1105 12.8117L14.0591 5.64132C13.6256 5.20025 12.9259 5.19263 12.4998 5.62457C10.125 8.03319 2.2269 16.0446 0.310635 18.0158C-0.110921 18.4493 -0.102362 19.1597 0.329894 19.5991L17.1115 36.6641C17.5461 37.1063 18.2469 37.1126 18.6736 36.6787L21.2021 34.1076L6.23639 18.8893L8.14666 16.9467Z" fill="black"/>
<path d="M35.7066 17.4007L18.9248 0.335838C18.4902 -0.106108 17.7896 -0.112637 17.3627 0.321259L14.8342 2.89242L29.7999 18.1107L27.8898 20.053L23.2642 15.3496L20.0816 18.5857L24.7072 23.2894L22.6771 25.354L18.0515 20.6503L14.749 24.0086L21.9964 31.3782C22.4226 31.8119 23.1157 31.8258 23.5411 31.4098C25.5053 29.4895 33.3638 21.4135 35.7256 18.9842C36.1474 18.5505 36.1388 17.8402 35.7066 17.4007Z" fill="black"/>
<path d="M62.7643 27.7039L62.7365 15.8769L57.0262 25.6201H55.0027L49.3201 16.1304V27.7039H45.1064V7.99255H48.8208L56.0838 20.2417L63.2355 7.99255H66.9223L66.9777 27.7039H62.7643Z" fill="black"/>
<path d="M83.3322 17.9469C84.2373 18.9513 84.6906 20.1951 84.6906 21.6781C84.6906 22.8233 84.3946 23.8793 83.8034 24.8459C83.2119 25.8129 82.3108 26.5873 81.1007 27.169C79.8902 27.7506 78.4072 28.042 76.6517 28.042C75.2839 28.042 73.9392 27.8588 72.6182 27.4928C71.2969 27.1268 70.1741 26.6056 69.2505 25.9302L70.9966 22.4384C71.7355 23.0015 72.5906 23.4378 73.5608 23.7477C74.5309 24.0573 75.5242 24.2124 76.5408 24.2124C77.6677 24.2124 78.5547 23.9918 79.2018 23.5505C79.8484 23.1099 80.172 22.4854 80.172 21.6781C80.172 20.0639 78.9615 19.2562 76.5408 19.2562H74.4896V16.2433L78.4813 11.6532H70.2205V7.99275H83.8034V10.9493L79.4237 16.0181C81.1236 16.2996 82.4266 16.9429 83.3322 17.9469Z" fill="black"/>
<path d="M86.5952 7.87011H87.9686V26.4917H96.6576V27.6665H86.5952V7.87011Z" fill="black"/>
<path d="M108.093 19.369C108.129 17.401 107.319 14.4051 103.943 14.4051C100.893 14.4051 99.57 17.1956 99.3171 19.369H108.093ZM99.2448 20.4851C99.2448 24.9863 101.659 26.7707 104.522 26.7707C106.546 26.7707 107.594 26.3594 108.382 25.9703L108.736 27.0716C108.201 27.3654 106.777 27.9749 104.355 27.9749C100.365 27.9749 97.8857 25.0229 97.8857 20.8963C97.8857 16.1896 100.539 13.2451 104.124 13.2451C108.671 13.2451 109.531 17.5847 109.531 19.6186C109.531 20.0153 109.531 20.2353 109.488 20.4851H99.2448Z" fill="black"/>
<path d="M113.058 16.9384C113.058 15.6463 113.015 14.6766 112.942 13.568H114.222L114.323 16.1161H114.381C115.14 14.5302 116.882 13.2451 119.159 13.2451C120.482 13.2451 124.003 13.9353 124.003 19.2149V27.6665H122.629V19.3396C122.629 16.7697 121.653 14.4421 118.783 14.4421C116.831 14.4421 115.169 15.8591 114.619 17.6874C114.518 18.0253 114.432 18.5025 114.432 18.9431V27.6665H113.058V16.9384Z" fill="black"/>
<path d="M138.242 19.1487C138.242 18.7596 138.198 18.2528 138.104 17.8637C137.62 15.9695 135.994 14.4052 133.724 14.4052C130.71 14.4052 128.794 17.078 128.794 20.7273C128.794 23.8997 130.355 26.8293 133.659 26.8293C135.64 26.8293 137.505 25.4856 138.097 23.136C138.198 22.776 138.242 22.4018 138.242 21.9685V19.1487ZM139.615 6.81268V24.3917C139.615 25.4271 139.659 26.6754 139.731 27.6666H138.487L138.394 24.9936H138.322C137.613 26.5651 135.95 27.9897 133.384 27.9897C129.965 27.9897 127.406 25.082 127.406 20.8744C127.384 16.1749 130.232 13.2452 133.659 13.2452C136.052 13.2452 137.562 14.5081 138.184 15.7269H138.242V6.81268H139.615Z" fill="black"/>
<path d="M144.284 13.5682H145.658V27.6667H144.284V13.5682ZM146.084 9.53717C146.084 10.1904 145.657 10.756 144.927 10.756C144.298 10.756 143.857 10.1904 143.857 9.53717C143.857 8.8909 144.342 8.31818 144.978 8.31818C145.636 8.31818 146.084 8.86893 146.084 9.53717Z" fill="black"/>
<path d="M150.327 16.9384C150.327 15.6463 150.284 14.6766 150.211 13.568H151.491L151.592 16.1161H151.65C152.409 14.5302 154.151 13.2451 156.428 13.2451C157.751 13.2451 161.272 13.9353 161.272 19.2149V27.6665H159.898V19.3396C159.898 16.7697 158.922 14.4421 156.052 14.4421C154.1 14.4421 152.438 15.8591 151.888 17.6874C151.787 18.0253 151.701 18.5025 151.701 18.9431V27.6665H150.327V16.9384Z" fill="black"/>
<path d="M175.511 18.9873C175.511 18.4807 175.467 18.04 175.337 17.629C174.766 15.9254 173.299 14.4053 171.021 14.4053C168.087 14.4053 166.063 16.8578 166.063 20.5879C166.063 23.7603 167.704 26.5064 170.986 26.5064C172.836 26.5064 174.564 25.339 175.265 23.3123C175.424 22.8497 175.511 22.3209 175.511 21.8215V18.9873ZM177 13.5681C176.928 14.6183 176.884 15.7346 176.884 17.2103V25.6106C176.884 29.2232 176.154 31.0149 174.983 32.1386C173.718 33.3645 171.853 33.8052 170.284 33.8052C168.701 33.8052 166.93 33.3939 165.875 32.5936L166.367 31.4703C167.328 32.109 168.694 32.6451 170.494 32.6451C173.407 32.6451 175.511 31.1104 175.511 26.9323V24.9423H175.453C174.73 26.3743 173.104 27.6667 170.624 27.6667C167.14 27.6667 164.675 24.5754 164.675 20.7496C164.675 15.8225 167.848 13.2452 170.928 13.2452C173.653 13.2452 175.026 14.7652 175.59 15.9474H175.648L175.728 13.5681H177Z" fill="black"/>
<path d="M46.8857 39H45.2379L47.7486 31.7273H49.7301L52.2372 39H50.5895L48.7678 33.3892H48.7109L46.8857 39ZM46.7827 36.1413H50.6747V37.3416H46.7827V36.1413ZM55.6907 39H53.1126V31.7273H55.712C56.4435 31.7273 57.0733 31.8729 57.6012 32.1641C58.1291 32.4529 58.5352 32.8684 58.8192 33.4105C59.1057 33.9527 59.2489 34.6013 59.2489 35.3565C59.2489 36.1141 59.1057 36.7652 58.8192 37.3097C58.5352 37.8542 58.1268 38.272 57.5941 38.5632C57.0638 38.8544 56.4293 39 55.6907 39ZM54.6502 37.6825H55.6268C56.0813 37.6825 56.4637 37.602 56.7738 37.4411C57.0863 37.2777 57.3207 37.0256 57.4769 36.6847C57.6355 36.3414 57.7148 35.8987 57.7148 35.3565C57.7148 34.8191 57.6355 34.38 57.4769 34.0391C57.3207 33.6982 57.0875 33.4472 56.7773 33.2862C56.4672 33.1252 56.0849 33.0447 55.6303 33.0447H54.6502V37.6825ZM60.388 31.7273H62.2843L64.2871 36.6136H64.3723L66.3752 31.7273H68.2715V39H66.78V34.2663H66.7196L64.8375 38.9645H63.8219L61.9398 34.2486H61.8794V39H60.388V31.7273ZM71.076 31.7273V39H69.5384V31.7273H71.076ZM78.4242 31.7273V39H77.0961L73.932 34.4226H73.8787V39H72.3411V31.7273H73.6905L76.8297 36.3011H76.8936V31.7273H78.4242Z" fill="black"/>
</svg>
