<svg width="225" height="227" viewBox="0 0 225 227" fill="none" xmlns="http://www.w3.org/2000/svg">
<path d="M50.7609 103.84L78.4795 131.559L99.0569 110.982L71.3382 83.2631L83.9875 70.6138L111.706 98.3311L131.537 78.5031L87.6009 34.5671C84.8995 31.8644 80.5395 31.8178 77.8849 34.4644C63.0875 49.2231 13.8755 98.3124 1.93553 110.391C-0.691137 113.047 -0.637804 117.4 2.05553 120.092L106.62 224.658C109.328 227.367 113.694 227.406 116.353 224.747L132.108 208.992L38.8582 115.743L50.7609 103.84Z" fill="#1AE59B"/>
<path d="M222.482 106.622L117.917 2.05751C115.209 -0.650493 110.844 -0.690495 108.184 1.96817L92.4289 17.7228L185.678 110.972L173.777 122.873L144.956 94.0535L125.125 113.883L153.946 142.704L141.297 155.355L112.476 126.534L91.8982 147.111L137.056 192.268C139.712 194.925 144.03 195.011 146.681 192.461C158.92 180.695 207.885 131.209 222.601 116.324C225.229 113.667 225.176 109.315 222.482 106.622Z" fill="#1AE59B"/>
</svg>
