<svg width="182" height="41" viewBox="0 0 182 41" fill="none" xmlns="http://www.w3.org/2000/svg">
<path d="M8.14666 20.9467L12.5953 25.4704L15.8977 22.1122L11.4491 17.5885L13.4792 15.5241L17.9278 20.0476L21.1105 16.8117L14.0591 9.64132C13.6256 9.20025 12.9259 9.19263 12.4998 9.62457C10.125 12.0332 2.2269 20.0446 0.310635 22.0158C-0.110921 22.4493 -0.102362 23.1597 0.329894 23.5991L17.1115 40.6641C17.5461 41.1063 18.2469 41.1126 18.6736 40.6787L21.2021 38.1076L6.23639 22.8893L8.14666 20.9467Z" fill="black"/>
<path d="M35.7066 21.4007L18.9248 4.33584C18.4902 3.89389 17.7896 3.88736 17.3627 4.32126L14.8342 6.89242L29.7999 22.1107L27.8898 24.053L23.2642 19.3496L20.0816 22.5857L24.7072 27.2894L22.6771 29.354L18.0515 24.6503L14.749 28.0086L21.9964 35.3782C22.4226 35.8119 23.1157 35.8258 23.5411 35.4098C25.5053 33.4895 33.3638 25.4135 35.7256 22.9842C36.1474 22.5505 36.1388 21.8402 35.7066 21.4007Z" fill="black"/>
<path d="M55.032 23.288C53.736 23.288 52.528 23.08 51.408 22.664C50.304 22.232 49.344 21.624 48.528 20.84C47.712 20.056 47.072 19.136 46.608 18.08C46.16 17.024 45.936 15.864 45.936 14.6C45.936 13.336 46.16 12.176 46.608 11.12C47.072 10.064 47.712 9.144 48.528 8.36C49.36 7.576 50.328 6.976 51.432 6.56C52.536 6.128 53.744 5.912 55.056 5.912C56.512 5.912 57.824 6.168 58.992 6.68C60.176 7.176 61.168 7.912 61.968 8.888L59.472 11.192C58.896 10.536 58.256 10.048 57.552 9.728C56.848 9.392 56.08 9.224 55.248 9.224C54.464 9.224 53.744 9.352 53.088 9.608C52.432 9.864 51.864 10.232 51.384 10.712C50.904 11.192 50.528 11.76 50.256 12.416C50 13.072 49.872 13.8 49.872 14.6C49.872 15.4 50 16.128 50.256 16.784C50.528 17.44 50.904 18.008 51.384 18.488C51.864 18.968 52.432 19.336 53.088 19.592C53.744 19.848 54.464 19.976 55.248 19.976C56.08 19.976 56.848 19.816 57.552 19.496C58.256 19.16 58.896 18.656 59.472 17.984L61.968 20.288C61.168 21.264 60.176 22.008 58.992 22.52C57.824 23.032 56.504 23.288 55.032 23.288ZM64.5936 23V6.2H71.8656C73.3696 6.2 74.6656 6.448 75.7536 6.944C76.8416 7.424 77.6816 8.12 78.2736 9.032C78.8656 9.944 79.1616 11.032 79.1616 12.296C79.1616 13.544 78.8656 14.624 78.2736 15.536C77.6816 16.432 76.8416 17.12 75.7536 17.6C74.6656 18.08 73.3696 18.32 71.8656 18.32H66.7536L68.4816 16.616V23H64.5936ZM75.2736 23L71.0736 16.904H75.2256L79.4736 23H75.2736ZM68.4816 17.048L66.7536 15.224H71.6496C72.8496 15.224 73.7456 14.968 74.3376 14.456C74.9296 13.928 75.2256 13.208 75.2256 12.296C75.2256 11.368 74.9296 10.648 74.3376 10.136C73.7456 9.624 72.8496 9.368 71.6496 9.368H66.7536L68.4816 7.52V17.048ZM85.818 12.968H93.906V15.992H85.818V12.968ZM86.106 19.88H95.25V23H82.242V6.2H94.938V9.32H86.106V19.88ZM98.3436 23V6.2H105.976C107.8 6.2 109.408 6.552 110.8 7.256C112.192 7.944 113.28 8.912 114.064 10.16C114.848 11.408 115.24 12.888 115.24 14.6C115.24 16.296 114.848 17.776 114.064 19.04C113.28 20.288 112.192 21.264 110.8 21.968C109.408 22.656 107.8 23 105.976 23H98.3436ZM102.232 19.808H105.784C106.904 19.808 107.872 19.6 108.688 19.184C109.52 18.752 110.16 18.144 110.608 17.36C111.072 16.576 111.304 15.656 111.304 14.6C111.304 13.528 111.072 12.608 110.608 11.84C110.16 11.056 109.52 10.456 108.688 10.04C107.872 9.608 106.904 9.392 105.784 9.392H102.232V19.808ZM118.172 23V6.2H122.06V23H118.172ZM129.527 23V9.368H124.151V6.2H138.791V9.368H133.415V23H129.527ZM146.403 23.12C145.187 23.12 144.091 22.848 143.115 22.304C142.155 21.744 141.395 20.984 140.835 20.024C140.275 19.048 139.995 17.936 139.995 16.688C139.995 15.424 140.275 14.312 140.835 13.352C141.395 12.392 142.155 11.64 143.115 11.096C144.075 10.552 145.171 10.28 146.403 10.28C147.651 10.28 148.755 10.552 149.715 11.096C150.691 11.64 151.451 12.392 151.995 13.352C152.555 14.312 152.835 15.424 152.835 16.688C152.835 17.936 152.555 19.048 151.995 20.024C151.451 20.984 150.691 21.744 149.715 22.304C148.739 22.848 147.635 23.12 146.403 23.12ZM146.403 21.608C147.315 21.608 148.123 21.408 148.827 21.008C149.531 20.592 150.083 20.016 150.483 19.28C150.899 18.528 151.107 17.664 151.107 16.688C151.107 15.696 150.899 14.832 150.483 14.096C150.083 13.36 149.531 12.792 148.827 12.392C148.123 11.976 147.323 11.768 146.427 11.768C145.531 11.768 144.731 11.976 144.027 12.392C143.323 12.792 142.763 13.36 142.347 14.096C141.931 14.832 141.723 15.696 141.723 16.688C141.723 17.664 141.931 18.528 142.347 19.28C142.763 20.016 143.323 20.592 144.027 21.008C144.731 21.408 145.523 21.608 146.403 21.608ZM162.818 23.12C161.73 23.12 160.746 22.872 159.866 22.376C158.986 21.864 158.282 21.136 157.754 20.192C157.242 19.232 156.986 18.064 156.986 16.688C156.986 15.312 157.242 14.152 157.754 13.208C158.266 12.248 158.962 11.52 159.842 11.024C160.722 10.528 161.714 10.28 162.818 10.28C164.018 10.28 165.09 10.552 166.034 11.096C166.994 11.624 167.746 12.376 168.29 13.352C168.834 14.312 169.106 15.424 169.106 16.688C169.106 17.968 168.834 19.088 168.29 20.048C167.746 21.008 166.994 21.76 166.034 22.304C165.09 22.848 164.018 23.12 162.818 23.12ZM156.314 27.656V10.4H157.946V14.192L157.778 16.712L158.018 19.256V27.656H156.314ZM162.698 21.608C163.594 21.608 164.394 21.408 165.098 21.008C165.802 20.592 166.362 20.016 166.778 19.28C167.194 18.528 167.402 17.664 167.402 16.688C167.402 15.712 167.194 14.856 166.778 14.12C166.362 13.384 165.802 12.808 165.098 12.392C164.394 11.976 163.594 11.768 162.698 11.768C161.802 11.768 160.994 11.976 160.273 12.392C159.57 12.808 159.01 13.384 158.594 14.12C158.194 14.856 157.994 15.712 157.994 16.688C157.994 17.664 158.194 18.528 158.594 19.28C159.01 20.016 159.57 20.592 160.273 21.008C160.994 21.408 161.802 21.608 162.698 21.608ZM175.963 23.12C174.923 23.12 173.939 22.976 173.011 22.688C172.083 22.384 171.355 22.008 170.827 21.56L171.595 20.216C172.107 20.6 172.763 20.936 173.563 21.224C174.363 21.496 175.203 21.632 176.083 21.632C177.283 21.632 178.147 21.448 178.675 21.08C179.203 20.696 179.467 20.192 179.467 19.568C179.467 19.104 179.315 18.744 179.011 18.488C178.723 18.216 178.339 18.016 177.859 17.888C177.379 17.744 176.843 17.624 176.251 17.528C175.659 17.432 175.067 17.32 174.475 17.192C173.899 17.064 173.371 16.88 172.891 16.64C172.411 16.384 172.019 16.04 171.715 15.608C171.427 15.176 171.283 14.6 171.283 13.88C171.283 13.192 171.475 12.576 171.859 12.032C172.243 11.488 172.803 11.064 173.539 10.76C174.291 10.44 175.203 10.28 176.275 10.28C177.091 10.28 177.907 10.392 178.723 10.616C179.539 10.824 180.211 11.104 180.739 11.456L179.995 12.824C179.435 12.44 178.835 12.168 178.195 12.008C177.555 11.832 176.915 11.744 176.275 11.744C175.139 11.744 174.299 11.944 173.755 12.344C173.227 12.728 172.963 13.224 172.963 13.832C172.963 14.312 173.107 14.688 173.395 14.96C173.699 15.232 174.091 15.448 174.571 15.608C175.067 15.752 175.603 15.872 176.179 15.968C176.771 16.064 177.355 16.184 177.931 16.328C178.523 16.456 179.059 16.64 179.539 16.88C180.035 17.104 180.427 17.432 180.715 17.864C181.019 18.28 181.171 18.832 181.171 19.52C181.171 20.256 180.963 20.896 180.547 21.44C180.147 21.968 179.555 22.384 178.771 22.688C178.003 22.976 177.067 23.12 175.963 23.12Z" fill="#10895D"/>
<path d="M54.97 37.3845L54.9558 31.3766L52.0551 36.326H51.0272L48.1405 31.5053V37.3845H46V27.3714H47.8869L51.5764 33.5938L55.2093 27.3714H57.0822L57.1103 37.3845H54.97Z" fill="black"/>
<path d="M65.418 32.4282C65.8778 32.9384 66.108 33.5703 66.108 34.3236C66.108 34.9054 65.9577 35.4418 65.6573 35.9328C65.3569 36.424 64.8991 36.8174 64.2844 37.1129C63.6695 37.4084 62.9162 37.5564 62.0244 37.5564C61.3295 37.5564 60.6464 37.4633 59.9754 37.2774C59.3042 37.0915 58.7338 36.8267 58.2646 36.4836L59.1517 34.7098C59.527 34.9959 59.9614 35.2175 60.4543 35.3749C60.947 35.5322 61.4516 35.611 61.9681 35.611C62.5405 35.611 62.9911 35.499 63.3198 35.2748C63.6483 35.0509 63.8126 34.7337 63.8126 34.3236C63.8126 33.5036 63.1977 33.0933 61.9681 33.0933H60.926V31.5628L62.9538 29.2311H58.7574V27.3716H65.6573V28.8735L63.4325 31.4484C64.296 31.5914 64.9579 31.9182 65.418 32.4282Z" fill="black"/>
<path d="M67.0757 27.3094H67.7733V36.7689H72.1872V37.3657H67.0757V27.3094Z" fill="black"/>
<path d="M77.9961 33.1508C78.0144 32.1511 77.6032 30.6292 75.8882 30.6292C74.3386 30.6292 73.6666 32.0467 73.5382 33.1508H77.9961ZM73.5014 33.7177C73.5014 36.0043 74.7279 36.9107 76.182 36.9107C77.2103 36.9107 77.7427 36.7018 78.1429 36.5042L78.3229 37.0636C78.0512 37.2128 77.3278 37.5225 76.0976 37.5225C74.0706 37.5225 72.811 36.0229 72.811 33.9267C72.811 31.5357 74.1587 30.0399 75.9801 30.0399C78.2898 30.0399 78.7269 32.2444 78.7269 33.2776C78.7269 33.4791 78.7269 33.5908 78.7048 33.7177H73.5014Z" fill="black"/>
<path d="M80.5183 31.916C80.5183 31.2596 80.4962 30.767 80.4595 30.2038H81.1094L81.1609 31.4982H81.1903C81.5759 30.6926 82.4607 30.0398 83.6175 30.0398C84.2894 30.0398 86.0779 30.3904 86.0779 33.0724V37.3657H85.3801V33.1358C85.3801 31.8303 84.8843 30.6479 83.4265 30.6479C82.435 30.6479 81.5905 31.3677 81.3114 32.2964C81.26 32.4681 81.2159 32.7105 81.2159 32.9344V37.3657H80.5183V31.916Z" fill="black"/>
<path d="M93.3117 33.0384C93.3117 32.8407 93.2896 32.5833 93.2419 32.3856C92.9959 31.4234 92.1698 30.6288 91.0167 30.6288C89.4855 30.6288 88.5123 31.9865 88.5123 33.8403C88.5123 35.4519 89.3056 36.94 90.9836 36.94C91.9899 36.94 92.9373 36.2575 93.2382 35.0639C93.2896 34.881 93.3117 34.6909 93.3117 34.4708V33.0384ZM94.0094 26.7719V35.7018C94.0094 36.2277 94.0314 36.8619 94.0682 37.3654H93.4365L93.3889 36.0075H93.3522C92.9923 36.8058 92.1477 37.5295 90.8441 37.5295C89.1072 37.5295 87.8072 36.0524 87.8072 33.9151C87.7962 31.5278 89.2431 30.0395 90.9836 30.0395C92.1991 30.0395 92.9666 30.681 93.2824 31.3002H93.3117V26.7719H94.0094Z" fill="black"/>
<path d="M96.3808 30.2038H97.0785V37.3657H96.3808V30.2038ZM97.2951 28.1561C97.2951 28.488 97.0785 28.7753 96.7076 28.7753C96.3881 28.7753 96.1641 28.488 96.1641 28.1561C96.1641 27.8278 96.4102 27.5369 96.7332 27.5369C97.0674 27.5369 97.2951 27.8167 97.2951 28.1561Z" fill="black"/>
<path d="M99.4504 31.916C99.4504 31.2596 99.4283 30.767 99.3916 30.2038H100.042L100.093 31.4982H100.122C100.508 30.6926 101.393 30.0398 102.55 30.0398C103.222 30.0398 105.01 30.3904 105.01 33.0724V37.3657H104.312V33.1358C104.312 31.8303 103.816 30.6479 102.359 30.6479C101.367 30.6479 100.523 31.3677 100.244 32.2964C100.192 32.4681 100.148 32.7105 100.148 32.9344V37.3657H99.4504V31.916Z" fill="black"/>
<path d="M112.244 32.9566C112.244 32.6992 112.222 32.4754 112.156 32.2666C111.866 31.4012 111.12 30.629 109.963 30.629C108.473 30.629 107.444 31.8748 107.444 33.7697C107.444 35.3812 108.278 36.7762 109.945 36.7762C110.885 36.7762 111.763 36.1832 112.119 35.1536C112.2 34.9186 112.244 34.65 112.244 34.3963V32.9566ZM113 30.2037C112.963 30.7372 112.941 31.3042 112.941 32.0539V36.3211C112.941 38.1563 112.571 39.0665 111.976 39.6373C111.333 40.26 110.386 40.4839 109.589 40.4839C108.785 40.4839 107.885 40.275 107.349 39.8684L107.599 39.2978C108.087 39.6222 108.781 39.8946 109.695 39.8946C111.175 39.8946 112.244 39.115 112.244 36.9925V35.9817H112.214C111.847 36.7091 111.021 37.3656 109.761 37.3656C107.992 37.3656 106.739 35.7953 106.739 33.8518C106.739 31.3489 108.351 30.0397 109.916 30.0397C111.3 30.0397 111.998 30.8118 112.284 31.4124H112.314L112.354 30.2037H113Z" fill="black"/>
</svg>
